# AST/ASF file generated using VICON BodyLanguage
# -----------------------------------------------
:version 1.10
:name VICON
:units
  mass 1.0
  length 0.45
  angle deg
:documentation
   .ast/.asf automatically generated from VICON data using
   VICON BodyBuilder and BodyLanguage model FoxedUp or BRILLIANT.MOD
:root
   order TX TY TZ RX RY RZ
   axis XYZ
   position 0 0 0  
   orientation 0 0 0 
:bonedata
  begin
     id 1 
     name lhipjoint
     direction 0.625129 -0.738222 0.253461 
     length 2.5165 
     axis 0 0 0  XYZ
  end
  begin
     id 2 
     name lfemur
     direction 0.34202 -0.939693 0  
     length 7.54288  
     axis 0 0 20  XYZ
    dof rx ry rz
    limits (-160.0 20.0)
           (-70.0 70.0)
           (-60.0 70.0)
  end
  begin
     id 3 
     name ltibia
     direction 0.34202 -0.939693 0   
     length 7.71864   
     axis 0 0 20   XYZ
    dof rx
    limits (-10.0 170.0)
  end
  begin
     id 4 
     name lfoot
     direction 0.0772037 -0.212115 0.97419   
     length 2.18429   
     axis -90 7.62852e-016 20   XYZ
    dof rx rz
    limits (-45.0 90.0)
           (-70.0 20.0)
  end
  begin
     id 5 
     name ltoes
     direction 1.53513e-011 -4.21834e-011 1   
     length 1.09718   
     axis -90 7.62852e-016 20   XYZ
    dof rx
    limits (-90.0 20.0)
  end
  begin
     id 6 
     name rhipjoint
     direction -0.621946 -0.740623 0.254285   
     length 2.50835  
     axis 0 0 0  XYZ 
  end
  begin
     id 7 
     name rfemur
     direction -0.34202 -0.939693 0   
     length 7.43366   
     axis 0 0 -20   XYZ
    dof rx ry rz
    limits (-160.0 20.0)
           (-70.0 70.0)
           (-70.0 60.0)
  end
  begin
     id 8 
     name rtibia
     direction -0.34202 -0.939693 0   
     length 7.77122   
     axis 0 0 -20   XYZ
    dof rx
    limits (-10.0 170.0)
 end
 begin
     id 9 
     name rfoot
     direction -0.082694 -0.2272 0.970331   
     length 2.2293  
     axis -90 -7.62852e-016 -20   XYZ
    dof rx rz
    limits (-45.0 90.0)
           (-20.0 70.0)
  end
  begin
     id 10 
     name rtoes
     direction -1.53565e-011 -4.21695e-011 1   
     length 1.1178   
     axis -90 -7.62852e-016 -20   XYZ
    dof rx
    limits (-90.0 20.0)
  end
  begin
     id 11 
     name lowerback
     direction -0.000695208 0.988391 -0.151929   
     length 1.95077   
     axis 0 0 0   XYZ
    dof rx ry rz
    limits (-20.0 45.0)
           (-30.0 30.0)
           (-30.0 30.0)
  end
  begin
     id 12 
     name upperback
     direction -0.00268925 0.999885 -0.0149203   
     length 1.96246   
     axis 0 0 0   XYZ
    dof rx ry rz
    limits (-20.0 45.0)
           (-30.0 30.0)
           (-30.0 30.0)
  end
  begin
     id 13 
     name thorax
     direction -0.000848408 0.998481 0.0550912   
     length 2.00867   
     axis 0 0 0   XYZ
    dof rx ry rz
    limits (-20.0 45.0)
           (-30.0 30.0)
           (-30.0 30.0)
  end
  begin
     id 14 
     name lowerneck
     direction -0.00577709 0.998999 0.0443608   
     length 1.75762   
     axis 0 0 0   XYZ
    dof rx ry rz
    limits (-20.0 45.0)
           (-30.0 30.0)
           (-30.0 30.0)
  end
  begin
     id 15 
     name upperneck
     direction 0.0320945 0.999136 0.0264105   
     length 1.72601   
     axis 0 0 0   XYZ
    dof rx ry rz
    limits (-20.0 45.0)
           (-30.0 30.0)
           (-30.0 30.0)
  end
  begin
     id 16
     name head
     direction 0.0120552 0.999916 0.00480151  
     length 1.79973  
     axis 0 0 0   XYZ
    dof rx ry rz
    limits (-20.0 45.0)
           (-30.0 30.0)
           (-30.0 30.0)
  end
  begin
     id 17 
     name lclavicle
     direction 0.909 0.371533 -0.188897  
     length 3.47956  
     axis 0 0 0   XYZ
    dof ry rz
    limits (-20.0 10.0)
           (0.0 20.0)
  end
  begin
     id 18 
     name lhumerus
     direction 1 -4.48963e-011 -6.48352e-028   
     length 5.52302   
     axis 180 -30 -90   XYZ
    dof rx ry rz
    limits (-60.0 90.0)
           (-90.0 90.0)
           (-90.0 90.0)
  end
  begin
     id 19
     name lradius
     direction 1 -4.48968e-011 -4.78536e-027   
     length 3.58675   
     axis 180 -30 -90   XYZ
    dof rx
    limits (-10.0 170.0)
  end
  begin
     id 20
     name lwrist
     direction 1 -4.48942e-011 -9.9435e-027   
     length 1.79337   
     axis 8.54312e-015 90 90   XYZ
    dof ry
    limits (-180.0 0.0)
 end
  begin
     id 21 
     name lhand
     direction 1 -4.4904e-011 -1.9887e-026   
     length 0.536412   
     axis 1.26896e-014 90 90   XYZ
    dof rx rz
    limits (-90.0 90.0)
           (-45.0 45.0)
  end
  begin
     id 22 
     name lfingers
     direction 1 -4.48893e-011 -3.9774e-026   
     length 0.432469   
     axis 2.53792e-014 90 90   XYZ
    dof rx
    limits (0.0 90.0)
  end
  begin
     id 23
     name lthumb
     direction 0.707107 -6.34934e-011 0.707107   
     length 0.620942   
     axis -90 45 2.85299e-015   XYZ
    dof rx rz
    limits (-45.0 45.0)
           (-45.0 45.0)
  end
  begin
     id 24 
     name rclavicle
     direction -0.89595 0.416672 -0.153813   
     length 3.44099  
     axis 0 0 0   XYZ 
    dof ry rz
    limits (-10.0 20.0)
           (-20.0 0.0)
  end
  begin
     id 25 
     name rhumerus
     direction -1 -4.48952e-011 5.57804e-028  
     length 5.8478   
     axis 180 30 90   XYZ
    dof rx ry rz
    limits (-90.0 60.0)
           (-90.0 90.0)
           (-90.0 90.0)
  end
  begin
     id 26 
     name rradius
     direction -1 -4.48967e-011 -7.93646e-027   
     length 3.62717   
     axis 180 30 90   XYZ
    dof rx
    limits (-10.0 170.0)
  end
  begin
     id 27 
     name rwrist
     direction -1 -4.49008e-011 -9.9435e-027   
     length 1.81359   
     axis 8.54312e-015 -90 -90   XYZ
    dof ry
    limits (-180.0 0.0)
  end
  begin
     id 28
     name rhand
     direction -1 -4.48812e-011 -1.9887e-026   
     length 0.650516   
     axis 1.26896e-014 -90 -90   XYZ
    dof rx rz
    limits (-90.0 90.0)
           (-45.0 45.0)
  end
  begin
     id 29
     name rfingers
     direction -1 -4.49228e-011 -3.9774e-026   
     length 0.524463   
     axis 2.53792e-014 -90 -90   XYZ
    dof rx
    limits (0.0 90.0)
  end
  begin
     id 30
     name rthumb
     direction -0.707107 -6.34912e-011 0.707107   
     length 0.753027   
     axis -90 -45 -2.85299e-015   XYZ
    dof rx rz
    limits (-45.0 45.0)
           (-45.0 45.0)
  end
:hierarchy
  begin
    root lhipjoint rhipjoint lowerback
    lhipjoint lfemur
    lfemur ltibia
    ltibia lfoot
    lfoot ltoes
    rhipjoint rfemur
    rfemur rtibia
    rtibia rfoot
    rfoot rtoes
    lowerback upperback
    upperback thorax
    thorax lowerneck lclavicle rclavicle
    lowerneck upperneck
    upperneck head
    lclavicle lhumerus
    lhumerus lradius
    lradius lwrist
    lwrist lhand lthumb
    lhand lfingers
    rclavicle rhumerus
    rhumerus rradius
    rradius rwrist
    rwrist rhand rthumb
    rhand rfingers
  end

#!OML:ASF F:\VICON\USERDATA\INSTALL\rory3\rory3.ASF
:FULLY-SPECIFIED
:DEGREES
1439
root -9.78323 17.8104 38.7475 -189.022 211.753 -180.148
lowerback 9.70932 -4.2701 1.88026
upperback 1.78966 -5.49961 0.0353034
thorax -3.73415 -2.75747 -0.306423
lowerneck -0.240639 -12.5013 -0.635843
upperneck 7.49165 -17.0297 3.24586
head 2.80738 -8.42204 0.66428
rclavicle -9.14596e-014 1.07344e-014
rhumerus -34.3752 -10.1309 -70.0494
rradius 29.1631
rwrist 13.0415
rhand -25.532 16.7747
rfingers 7.12502
rthumb 0.997771 -13.2027
lclavicle -9.14596e-014 1.07344e-014
lhumerus -43.4108 15.4774 72.0831
lradius 4.15849
lwrist 22.7333
lhand -38.1022 34.0711
lfingers 7.12502
lthumb -11.1378 63.7556
rfemur -4.82574 13.2287 25.5749
rtibia 23.1041
rfoot -3.84807 6.88187
rtoes 15.1275
lfemur -10.4357 20.7423 -10.5057
ltibia 67.2161
lfoot 2.81685 -4.60969
ltoes -24.2786
1440
root -9.77889 17.8223 38.6498 -189.293 210.717 -179.793
lowerback 9.1584 -4.46606 1.57583
upperback 2.01526 -5.81034 -0.111769
thorax -3.18793 -2.90903 -0.306592
lowerneck 0.179861 -12.6988 -0.931658
upperneck 6.4021 -17.2959 4.20587
head 2.5025 -8.56056 1.05501
rclavicle -7.97002e-014 -1.98785e-015
rhumerus -34.8056 -10.2299 -69.6437
rradius 29.1668
rwrist 12.414
rhand -25.3668 17.0143
rfingers 7.12502
rthumb 1.15728 -12.9623
lclavicle -7.97002e-014 -1.98785e-015
lhumerus -42.9883 15.3267 72.017
lradius 3.94655
lwrist 22.4841
lhand -38.2336 33.9181
lfingers 7.12502
lthumb -11.2646 63.5957
rfemur -4.85581 12.0247 25.0843
rtibia 22.7277
rfoot -3.60255 7.26191
rtoes 14.9125
lfemur -9.61103 19.978 -11.2496
ltibia 67.605
lfoot 4.48432 -5.50142
ltoes -24.1835
1441
root -9.78452 17.8229 38.5371 -189.096 210.467 -180.561
lowerback 9.31214 -4.53076 1.92466
upperback 1.92008 -5.84923 0.138417
thorax -3.38065 -2.93077 -0.218728
lowerneck 0.267132 -12.7272 -0.718619
upperneck 6.4471 -17.3297 4.05316
head 2.4666 -8.57757 0.983163
rclavicle -7.25813e-014 4.77083e-015
rhumerus -35.5731 -10.3622 -69.0367
rradius 28.9716
rwrist 12.0063
rhand -25.1837 17.8564
rfingers 7.12502
rthumb 1.33413 -12.1192
lclavicle -7.25813e-014 4.77083e-015
lhumerus -43.1389 15.2264 71.8789
lradius 3.78605
lwrist 22.0386
lhand -38.051 33.4118
lfingers 7.12502
lthumb -11.0885 63.0988
rfemur -4.9621 12.3072 25.9961
rtibia 22.4675
rfoot -2.99112 6.72586
rtoes 15.3742
lfemur -8.64693 19.8447 -10.469
ltibia 67.9416
lfoot 6.39868 -6.68957
ltoes -22.917
1442
root -9.7834 17.8221 38.4272 -189.086 210.084 -180.881
lowerback 9.20171 -4.55103 2.14967
upperback 1.91781 -5.85626 0.164162
thorax -3.34172 -2.93623 -0.324058
lowerneck 0.0067242 -12.792 -0.375063
upperneck 6.95411 -17.4261 3.65378
head 2.60963 -8.61511 0.774965
rclavicle 6.12133e-014 3.97569e-016
rhumerus -36.2873 -11.2016 -68.4187
rradius 28.7225
rwrist 11.7882
rhand -25.2585 17.2208
rfingers 7.12502
rthumb 1.26195 -12.7552
lclavicle 6.12133e-014 3.97569e-016
lhumerus -43.0869 14.9533 71.8315
lradius 3.81895
lwrist 21.5943
lhand -36.811 34.5022
lfingers 7.12502
lthumb -9.89232 64.2497
rfemur -5.09666 12.2522 26.3932
rtibia 22.2653
rfoot -2.67229 6.49763
rtoes 15.2301
lfemur -7.68405 19.5431 -10.2592
ltibia 68.0791
lfoot 8.27696 -7.81498
ltoes -20.5817
